<svg xmlns="http://www.w3.org/2000/svg" width="24" height="24" xmlns:v="https://vecta.io/nano"><path d="M20 3a3 3 0 1 0-6 0c0 .312.061.606.149.889l-4.21 3.157a7.02 7.02 0 0 1 1.201 1.599l4.197-3.148A3 3 0 0 0 20 3zm-2 0a1 1 0 1 1-2 0 1 1 0 1 1 2 0zm3 12.062a3 3 0 1 0 0-6c-1.281 0-2.367.807-2.797 1.938H11.92c.047.328.08.66.08 1s-.033.672-.08 1h6.244A2.99 2.99 0 0 0 21 15.062zm-1-3a1 1 0 1 1 2 0 1 1 0 1 1-2 0zM0 12a5 5 0 1 0 10 0 5 5 0 1 0-10 0zm2 0c0-1.654 1.346-3 3-3s3 1.346 3 3-1.346 3-3 3-3-1.346-3-3zm7.939 4.955l4.21 3.157c-.088.282-.149.576-.149.888a3 3 0 1 0 6 0 3 3 0 0 0-3-3 2.99 2.99 0 0 0-1.662.504l-4.197-3.148a7.08 7.08 0 0 1-1.202 1.599zM16 21a1 1 0 1 1 2 0 1 1 0 1 1-2 0z"/></svg>